<?xml version="1.0" encoding="utf-8"?>
<!-- Generator: Adobe Illustrator 27.0.1, SVG Export Plug-In . SVG Version: 6.00 Build 0)  -->
<svg version="1.1" id="Layer_1" xmlns="http://www.w3.org/2000/svg" xmlns:xlink="http://www.w3.org/1999/xlink" x="0px" y="0px"
	 viewBox="0 0 32 14" style="enable-background:new 0 0 32 14;" xml:space="preserve">
<style type="text/css">
	.st0{fill:#E0E0E0;}
</style>
<g>
	<path class="st0" d="M0.7,7c0-4.1,1.6-6.5,5-6.5c2.6,0,3.9,1.4,4.4,3.6L7.6,4.7c-0.3-1.2-0.7-2.1-2-2.1c-1.5,0-2,1.2-2,3.2v2.2
		c0,2,0.6,3.2,2,3.2c1.3,0,1.7-0.9,2-2.1l2.5,0.6c-0.5,2.2-1.9,3.6-4.4,3.6C2.3,13.5,0.7,11.1,0.7,7z"/>
	<path class="st0" d="M11.3,11.6l1.6-1.7c0.9,1,2.1,1.5,3.2,1.5c1.3,0,2-0.6,2-1.7c0-0.9-0.5-1.3-1.7-1.5L15,7.9
		c-2.3-0.4-3.2-1.8-3.2-3.6c0-2.4,1.7-3.8,4.5-3.8c1.9,0,3.4,0.6,4.3,1.7l-1.5,1.7c-0.7-0.7-1.6-1.2-2.7-1.2c-1.2,0-1.8,0.5-1.8,1.5
		c0,0.9,0.5,1.2,1.7,1.5l1.3,0.2c2,0.4,3.2,1.5,3.2,3.5c0,2.4-1.7,4.1-4.8,4.1C13.9,13.5,12.3,12.7,11.3,11.6z"/>
	<path class="st0" d="M23,13.3V0.7h8.3v2.2h-5.6v2.9h5V8h-5v5.3H23z"/>
</g>
</svg>
